<svg width="24" height="24" viewBox="0 0 24 24" fill="none" xmlns="http://www.w3.org/2000/svg">
<g id="mdi:heart-plus-outline">
<path id="Vector" d="M12.536 19.0053L12 19.4868L10.84 18.4447C6.72 14.7579 4 12.3184 4 9.34211C4 6.90263 5.936 5 8.4 5C9.792 5 11.128 5.63947 12 6.64211C12.872 5.63947 14.208 5 15.6 5C18.064 5 20 6.90263 20 9.34211C20 10.4711 19.6 11.5211 18.896 12.5868C18.4 12.35 17.848 12.1921 17.272 12.1368C18 11.1579 18.4 10.25 18.4 9.34211C18.4 7.76316 17.2 6.57895 15.6 6.57895C14.368 6.57895 13.168 7.36842 12.744 8.44211H11.256C10.832 7.36842 9.632 6.57895 8.4 6.57895C6.8 6.57895 5.6 7.76316 5.6 9.34211C5.6 11.6237 8.112 13.8737 11.912 17.2763L12 17.3553L12.032 17.3237C12.096 17.9237 12.272 18.4921 12.536 19.0053ZM16 13.6842V16.0526H13.6V17.6316H16V20H17.6V17.6316H20V16.0526H17.6V13.6842H16Z" fill="black"/>
</g>
</svg>
