<svg width="16" height="8" viewBox="0 0 16 8" fill="none" xmlns="http://www.w3.org/2000/svg">
<path d="M0.0782504 0.429079C0.148478 0.301257 0.26235 0.192758 0.406166 0.116636C0.549982 0.0405145 0.717617 1.13436e-05 0.888904 -6.34504e-07L15.1109 -1.28418e-08C15.2822 -3.74995e-05 15.4499 0.0404429 15.5938 0.116568C15.7377 0.192693 15.8516 0.301218 15.9219 0.429079C15.9921 0.556941 16.0157 0.69869 15.9898 0.837263C15.9639 0.975836 15.8895 1.10533 15.7758 1.21015L8.66477 7.75542C8.58138 7.83233 8.479 7.89389 8.36439 7.93604C8.24978 7.9782 8.12555 8 7.9999 8C7.87424 8 7.75001 7.9782 7.6354 7.93604C7.5208 7.89389 7.41842 7.83233 7.33502 7.75542L0.224027 1.21015C0.110309 1.1053 0.036048 0.975796 0.0101855 0.837223C-0.015677 0.698651 0.00795954 0.556917 0.0782504 0.429079V0.429079Z" fill="#5C7995"/>
</svg>
