<svg width="10" height="10" viewBox="0 0 10 10" fill="none" xmlns="http://www.w3.org/2000/svg">
<path fill-rule="evenodd" clip-rule="evenodd" d="M0 5C0 4.83424 0.0658481 4.67526 0.183058 4.55805C0.300269 4.44084 0.45924 4.375 0.625 4.375H7.86625L5.1825 1.6925C5.06514 1.57514 4.99921 1.41597 4.99921 1.25C4.99921 1.08403 5.06514 0.924854 5.1825 0.807496C5.29986 0.690138 5.45903 0.624207 5.625 0.624207C5.79097 0.624207 5.95014 0.690138 6.0675 0.807496L9.8175 4.5575C9.8757 4.61555 9.92188 4.68452 9.95339 4.76045C9.9849 4.83639 10.0011 4.91779 10.0011 5C10.0011 5.08221 9.9849 5.16361 9.95339 5.23954C9.92188 5.31547 9.8757 5.38444 9.8175 5.4425L6.0675 9.1925C5.95014 9.30985 5.79097 9.37579 5.625 9.37579C5.45903 9.37579 5.29986 9.30985 5.1825 9.1925C5.06514 9.07514 4.99921 8.91597 4.99921 8.75C4.99921 8.58403 5.06514 8.42485 5.1825 8.3075L7.86625 5.625H0.625C0.45924 5.625 0.300269 5.55915 0.183058 5.44194C0.0658481 5.32473 0 5.16576 0 5Z" fill="black"/>
</svg>
