<svg width="205" height="64" viewBox="0 0 205 64" fill="none" xmlns="http://www.w3.org/2000/svg">
<circle cx="32" cy="32" r="30" stroke="#5C7995" stroke-width="4"/>
<path d="M19.584 40V23.2H26.88C27.936 23.2 28.856 23.384 29.64 23.752C30.424 24.12 31.032 24.64 31.464 25.312C31.896 25.984 32.112 26.776 32.112 27.688V27.976C32.112 28.984 31.872 29.8 31.392 30.424C30.912 31.048 30.32 31.504 29.616 31.792V32.224C30.256 32.256 30.752 32.48 31.104 32.896C31.456 33.296 31.632 33.832 31.632 34.504V40H28.464V34.96C28.464 34.576 28.36 34.264 28.152 34.024C27.96 33.784 27.632 33.664 27.168 33.664H22.752V40H19.584ZM22.752 30.784H26.544C27.296 30.784 27.88 30.584 28.296 30.184C28.728 29.768 28.944 29.224 28.944 28.552V28.312C28.944 27.64 28.736 27.104 28.32 26.704C27.904 26.288 27.312 26.08 26.544 26.08H22.752V30.784ZM34.7481 40V23.2H37.9161V37.12H45.5961V40H34.7481Z" fill="#5C7995"/>
<path d="M85.584 40V23.2H92.88C93.936 23.2 94.856 23.384 95.64 23.752C96.424 24.12 97.032 24.64 97.464 25.312C97.896 25.984 98.112 26.776 98.112 27.688V27.976C98.112 28.984 97.872 29.8 97.392 30.424C96.912 31.048 96.32 31.504 95.616 31.792V32.224C96.256 32.256 96.752 32.48 97.104 32.896C97.456 33.296 97.632 33.832 97.632 34.504V40H94.464V34.96C94.464 34.576 94.36 34.264 94.152 34.024C93.96 33.784 93.632 33.664 93.168 33.664H88.752V40H85.584ZM88.752 30.784H92.544C93.296 30.784 93.88 30.584 94.296 30.184C94.728 29.768 94.944 29.224 94.944 28.552V28.312C94.944 27.64 94.736 27.104 94.32 26.704C93.904 26.288 93.312 26.08 92.544 26.08H88.752V30.784ZM100.844 40V28.096H103.868V40H100.844ZM102.356 26.704C101.812 26.704 101.348 26.528 100.964 26.176C100.596 25.824 100.412 25.36 100.412 24.784C100.412 24.208 100.596 23.744 100.964 23.392C101.348 23.04 101.812 22.864 102.356 22.864C102.916 22.864 103.38 23.04 103.748 23.392C104.116 23.744 104.3 24.208 104.3 24.784C104.3 25.36 104.116 25.824 103.748 26.176C103.38 26.528 102.916 26.704 102.356 26.704ZM112.019 40.336C111.075 40.336 110.187 40.104 109.355 39.64C108.539 39.16 107.883 38.464 107.387 37.552C106.891 36.64 106.643 35.536 106.643 34.24V33.856C106.643 32.56 106.891 31.456 107.387 30.544C107.883 29.632 108.539 28.944 109.355 28.48C110.171 28 111.059 27.76 112.019 27.76C112.739 27.76 113.339 27.848 113.819 28.024C114.315 28.184 114.715 28.392 115.019 28.648C115.323 28.904 115.555 29.176 115.715 29.464H116.147V23.2H119.171V40H116.195V38.56H115.763C115.491 39.008 115.067 39.416 114.491 39.784C113.931 40.152 113.107 40.336 112.019 40.336ZM112.931 37.696C113.859 37.696 114.635 37.4 115.259 36.808C115.883 36.2 116.195 35.32 116.195 34.168V33.928C116.195 32.776 115.883 31.904 115.259 31.312C114.651 30.704 113.875 30.4 112.931 30.4C112.003 30.4 111.227 30.704 110.603 31.312C109.979 31.904 109.667 32.776 109.667 33.928V34.168C109.667 35.32 109.979 36.2 110.603 36.808C111.227 37.4 112.003 37.696 112.931 37.696ZM121.948 34.096V33.712C121.948 32.464 122.196 31.4 122.692 30.52C123.188 29.624 123.844 28.944 124.66 28.48C125.492 28 126.396 27.76 127.372 27.76C128.46 27.76 129.284 27.952 129.844 28.336C130.404 28.72 130.812 29.12 131.068 29.536H131.5V28.096H134.476V42.112C134.476 42.928 134.236 43.576 133.756 44.056C133.276 44.552 132.636 44.8 131.836 44.8H123.868V42.16H130.78C131.228 42.16 131.452 41.92 131.452 41.44V38.344H131.02C130.86 38.6 130.636 38.864 130.348 39.136C130.06 39.392 129.676 39.608 129.196 39.784C128.716 39.96 128.108 40.048 127.372 40.048C126.396 40.048 125.492 39.816 124.66 39.352C123.844 38.872 123.188 38.192 122.692 37.312C122.196 36.416 121.948 35.344 121.948 34.096ZM128.236 37.408C129.164 37.408 129.94 37.112 130.564 36.52C131.188 35.928 131.5 35.096 131.5 34.024V33.784C131.5 32.696 131.188 31.864 130.564 31.288C129.956 30.696 129.18 30.4 128.236 30.4C127.308 30.4 126.532 30.696 125.908 31.288C125.284 31.864 124.972 32.696 124.972 33.784V34.024C124.972 35.096 125.284 35.928 125.908 36.52C126.532 37.112 127.308 37.408 128.236 37.408ZM143.252 40.336C142.068 40.336 141.02 40.088 140.108 39.592C139.212 39.08 138.508 38.368 137.996 37.456C137.5 36.528 137.252 35.44 137.252 34.192V33.904C137.252 32.656 137.5 31.576 137.996 30.664C138.492 29.736 139.188 29.024 140.084 28.528C140.98 28.016 142.02 27.76 143.204 27.76C144.372 27.76 145.388 28.024 146.252 28.552C147.116 29.064 147.788 29.784 148.268 30.712C148.748 31.624 148.988 32.688 148.988 33.904V34.936H140.324C140.356 35.752 140.66 36.416 141.236 36.928C141.812 37.44 142.516 37.696 143.348 37.696C144.196 37.696 144.82 37.512 145.22 37.144C145.62 36.776 145.924 36.368 146.132 35.92L148.604 37.216C148.38 37.632 148.052 38.088 147.62 38.584C147.204 39.064 146.644 39.48 145.94 39.832C145.236 40.168 144.34 40.336 143.252 40.336ZM140.348 32.68H145.916C145.852 31.992 145.572 31.44 145.076 31.024C144.596 30.608 143.964 30.4 143.18 30.4C142.364 30.4 141.716 30.608 141.236 31.024C140.756 31.44 140.46 31.992 140.348 32.68ZM157.678 40V23.2H160.846V37.12H168.526V40H157.678ZM170.782 40V28.096H173.806V40H170.782ZM172.294 26.704C171.75 26.704 171.286 26.528 170.902 26.176C170.534 25.824 170.35 25.36 170.35 24.784C170.35 24.208 170.534 23.744 170.902 23.392C171.286 23.04 171.75 22.864 172.294 22.864C172.854 22.864 173.318 23.04 173.686 23.392C174.054 23.744 174.238 24.208 174.238 24.784C174.238 25.36 174.054 25.824 173.686 26.176C173.318 26.528 172.854 26.704 172.294 26.704ZM177.157 40V28.096H180.133V29.656H180.565C180.757 29.24 181.117 28.848 181.645 28.48C182.173 28.096 182.973 27.904 184.045 27.904C184.973 27.904 185.781 28.12 186.469 28.552C187.173 28.968 187.717 29.552 188.101 30.304C188.485 31.04 188.677 31.904 188.677 32.896V40H185.653V33.136C185.653 32.24 185.429 31.568 184.981 31.12C184.549 30.672 183.925 30.448 183.109 30.448C182.181 30.448 181.461 30.76 180.949 31.384C180.437 31.992 180.181 32.848 180.181 33.952V40H177.157ZM197.37 40.336C196.186 40.336 195.138 40.088 194.226 39.592C193.33 39.08 192.626 38.368 192.114 37.456C191.618 36.528 191.37 35.44 191.37 34.192V33.904C191.37 32.656 191.618 31.576 192.114 30.664C192.61 29.736 193.306 29.024 194.202 28.528C195.098 28.016 196.138 27.76 197.322 27.76C198.49 27.76 199.506 28.024 200.37 28.552C201.234 29.064 201.906 29.784 202.386 30.712C202.866 31.624 203.106 32.688 203.106 33.904V34.936H194.442C194.474 35.752 194.778 36.416 195.354 36.928C195.93 37.44 196.634 37.696 197.466 37.696C198.314 37.696 198.938 37.512 199.338 37.144C199.738 36.776 200.042 36.368 200.25 35.92L202.722 37.216C202.498 37.632 202.17 38.088 201.738 38.584C201.322 39.064 200.762 39.48 200.058 39.832C199.354 40.168 198.458 40.336 197.37 40.336ZM194.466 32.68H200.034C199.97 31.992 199.69 31.44 199.194 31.024C198.714 30.608 198.082 30.4 197.298 30.4C196.482 30.4 195.834 30.608 195.354 31.024C194.874 31.44 194.578 31.992 194.466 32.68Z" fill="#5C7995"/>
</svg>
