<svg width="40" height="40" viewBox="0 0 40 40" fill="none" xmlns="http://www.w3.org/2000/svg">
<g id="shopping_cart">
<g clip-path="url(#clip0_2_628)">
<path id="Vector" d="M24.5446 21C25.2943 21 25.9541 20.59 26.2939 19.97L29.8726 13.48C30.2425 12.82 29.7627 12 29.0029 12H14.2084L13.2688 10H10V12H11.9993L15.5979 19.59L14.2484 22.03C13.5187 23.37 14.4783 25 15.9978 25H27.9933V23H15.9978L17.0974 21H24.5446ZM15.1581 14H27.3036L24.5446 19H17.5272L15.1581 14ZM15.9978 26C14.8982 26 14.0085 26.9 14.0085 28C14.0085 29.1 14.8982 30 15.9978 30C17.0974 30 17.997 29.1 17.997 28C17.997 26.9 17.0974 26 15.9978 26ZM25.9941 26C24.8945 26 24.0048 26.9 24.0048 28C24.0048 29.1 24.8945 30 25.9941 30C27.0937 30 27.9933 29.1 27.9933 28C27.9933 26.9 27.0937 26 25.9941 26Z" fill="#0D63F3"/>
</g>
<rect x="0.5" y="0.5" width="39" height="39" rx="7.5" stroke="#0D63F3"/>
</g>
<defs>
<clipPath id="clip0_2_628">
<rect width="40" height="40" rx="8" fill="white"/>
</clipPath>
</defs>
</svg>
